<svg width="60" height="60" viewBox="0 0 60 60" fill="none" xmlns="http://www.w3.org/2000/svg">
<path d="M18.9737 54.4575C17.2974 54.3098 15.6096 53.8949 14.0127 53.3551C9.29612 51.7469 6.76162 48.2975 6.23315 43.4217C5.85809 39.9553 5.67624 36.4661 5.46598 32.9769C5.25572 29.5161 5 26.0554 5 22.5946C5 19.6509 5.35232 16.7073 6.52863 13.9455C7.85837 10.8371 10.1599 8.74013 13.2854 7.52406C15.7857 6.55231 18.4169 6.23406 21.0536 5.92719C26.1112 5.34756 31.1803 5.1373 36.2606 5.47258C40.2555 5.73398 44.2278 6.20565 47.9215 7.87069C50.3991 8.99019 52.1551 10.8541 53.0303 13.4909C54.0077 16.4232 54.3714 19.4521 54.6214 22.5093C55.0021 27.2146 55.1044 31.9256 54.8885 36.6423C54.7408 39.7961 54.2293 42.8819 52.9734 45.78C51.0072 50.3205 47.7794 53.4688 42.7275 54.2871C40.9659 54.5712 39.1644 54.6678 37.3801 54.7132C34.7319 54.7814 32.0781 54.7303 29.4243 54.7303L18.9737 54.4575ZM30.8279 50.8206C34.5444 50.6558 37.8517 50.5421 41.1591 50.3433C43.7561 50.1898 45.8984 49.0817 47.5294 47.0132C49.7684 44.1718 50.5014 40.8133 50.7174 37.3412C51.0697 31.6699 50.8936 26.0042 50.2627 20.3556C50.0354 18.3155 49.7229 16.3095 48.5636 14.5365C48.2568 14.0648 48.0124 13.5477 47.7283 13.059C46.9895 11.7918 46.0291 10.6609 44.6028 10.2744C41.4432 9.41069 38.187 8.99019 34.9194 8.99588C31.2939 9.00156 27.6569 9.08113 24.0484 9.38225C21.3264 9.60956 18.6157 10.1381 15.9449 10.7291C12.6319 11.4621 10.6941 13.7182 9.84737 16.9346C8.9665 20.2874 8.97219 23.7141 9.17681 27.1464C9.37569 30.4254 9.63706 33.7043 9.88144 36.9832C10.0406 39.0631 10.1486 41.1486 10.4099 43.2171C10.8191 46.3824 12.5012 48.61 15.6324 49.5136C17.1269 49.9454 18.6783 50.3262 20.2183 50.4228C23.8836 50.6558 27.5547 50.7069 30.8279 50.8206Z" fill="#FFBC5E"/>
<path d="M24.0259 40.8019C24.31 39.6767 24.5259 38.7277 24.7874 37.7957C26.5433 31.4879 28.3106 25.1801 30.0666 18.8666C30.2087 18.3665 30.3109 17.8494 30.453 17.3493C30.7656 16.2469 31.8055 15.6275 32.8 15.9344C33.8172 16.2469 34.3173 17.2925 33.9934 18.4006C32.0214 25.146 30.0553 31.8914 28.0776 38.631C27.8219 39.5005 27.5492 40.37 27.1911 41.1997C26.7138 42.3135 25.492 42.6715 24.6964 41.9384C24.3668 41.6315 24.2134 41.1315 24.0259 40.8019Z" fill="#FFBC5E"/>
<path d="M15.5758 28.8115C16.4963 29.5673 17.3089 30.2549 18.1443 30.9027C19.2184 31.7324 20.3265 32.528 21.4062 33.352C22.0938 33.8748 22.4291 34.5738 22.1961 35.4375C21.9006 36.5514 20.5879 37.1594 19.5764 36.4945C17.076 34.8522 14.5358 33.244 12.5526 30.9539C12.1263 30.4595 11.8422 29.7946 11.6604 29.1582C11.4501 28.408 11.7569 27.709 12.3593 27.2147C14.7574 25.2428 17.1669 23.2822 19.5934 21.3444C20.0651 20.9694 20.622 20.6682 21.1789 20.4352C22.0654 20.0659 22.9349 20.3614 23.3043 21.0774C23.6736 21.7934 23.4179 22.5264 22.645 23.1402C20.3322 24.9927 18.025 26.851 15.5758 28.8115Z" fill="#FFBC5E"/>
<path d="M43.9946 28.7773C42.7046 27.8113 41.4657 26.8679 40.2099 25.9417C39.2779 25.254 38.3176 24.6062 37.4083 23.8959C36.7207 23.3617 36.5786 22.4979 36.9878 21.8274C37.414 21.1341 38.2721 20.8954 39.0847 21.2705C39.3518 21.3955 39.5962 21.5603 39.8349 21.7308C40.9202 22.515 42.0113 23.2879 43.074 24.1005C44.3867 25.1063 45.6881 26.1292 46.9723 27.1748C48.1316 28.1181 48.2168 29.2774 47.0803 30.2378C44.2275 32.6529 41.3294 35.0226 38.4199 37.3639C37.4936 38.1084 36.3684 37.9265 35.7831 37.0741C35.2148 36.2444 35.4592 35.2329 36.4025 34.5282C38.7267 32.795 41.0509 31.0561 43.3695 29.3172C43.5684 29.1751 43.7446 28.9989 43.9946 28.7773Z" fill="#FFBC5E"/>
</svg>
