<svg width="60" height="60" viewBox="0 0 60 60" fill="none" xmlns="http://www.w3.org/2000/svg">
<path d="M46.875 45.625V20.625H21.875V19.0625C21.875 16.4775 23.9775 14.375 26.5625 14.375H31.25V5H26.5625C22.8343 5.00463 19.2602 6.4877 16.6239 9.12393C13.9877 11.7602 12.5046 15.3343 12.5 19.0625V20.625H6.25V30H12.5V45.625H6.25V55H28.125V45.625H21.875V30H37.5875V45.625H31.25V55H53.125V45.625H46.875Z" fill="#FFBC5E"/>
<path d="M42.1875 14.375C44.7763 14.375 46.875 12.2763 46.875 9.6875C46.875 7.09867 44.7763 5 42.1875 5C39.5987 5 37.5 7.09867 37.5 9.6875C37.5 12.2763 39.5987 14.375 42.1875 14.375Z" fill="#FFBC5E"/>
</svg>
